<?xml version="1.0" encoding="UTF-8" standalone="no"?>
<!-- Generator: Adobe Illustrator 16.0.0, SVG Export Plug-In . SVG Version: 6.00 Build 0)  -->

<svg
   xmlns:dc="http://purl.org/dc/elements/1.1/"
   xmlns:cc="http://creativecommons.org/ns#"
   xmlns:rdf="http://www.w3.org/1999/02/22-rdf-syntax-ns#"
   xmlns:svg="http://www.w3.org/2000/svg"
   xmlns="http://www.w3.org/2000/svg"
   xmlns:sodipodi="http://sodipodi.sourceforge.net/DTD/sodipodi-0.dtd"
   xmlns:inkscape="http://www.inkscape.org/namespaces/inkscape"
   version="1.1"
   id="Layer_1"
   x="0px"
   y="0px"
   width="512px"
   height="512px"
   viewBox="0 0 512 512"
   enable-background="new 0 0 512 512"
   xml:space="preserve"
   inkscape:version="0.91 r13725"
   sodipodi:docname="shop.svg"><metadata
     id="metadata4219"><rdf:RDF><cc:Work
         rdf:about=""><dc:format>image/svg+xml</dc:format><dc:type
           rdf:resource="http://purl.org/dc/dcmitype/StillImage" /></cc:Work></rdf:RDF></metadata><defs
     id="defs4217" /><sodipodi:namedview
     pagecolor="#ffffff"
     bordercolor="#666666"
     borderopacity="1"
     objecttolerance="10"
     gridtolerance="10"
     guidetolerance="10"
     inkscape:pageopacity="0"
     inkscape:pageshadow="2"
     inkscape:window-width="1920"
     inkscape:window-height="1015"
     id="namedview4215"
     showgrid="false"
     inkscape:zoom="0.70214844"
     inkscape:cx="-63.897478"
     inkscape:cy="575.94836"
     inkscape:window-x="0"
     inkscape:window-y="0"
     inkscape:window-maximized="1"
     inkscape:current-layer="Layer_1" /><g
     id="g4197"
     style="fill:#ffffff"><g
       id="g4199"
       style="fill:#ffffff"><polygon
         points="447.992,336 181.555,336 69.539,80 0.008,80 0.008,48 90.477,48 202.492,304 447.992,304   "
         id="polygon4201"
         style="fill:#ffffff" /></g><path
       d="M287.992,416c0,26.5-21.5,48-48,48s-48-21.5-48-48s21.5-48,48-48S287.992,389.5,287.992,416z"
       id="path4203"
       style="fill:#ffffff" /><path
       d="M447.992,416c0,26.5-21.5,48-48,48s-48-21.5-48-48s21.5-48,48-48S447.992,389.5,447.992,416z"
       id="path4205"
       style="fill:#ffffff" /><g
       id="g4207"
       style="fill:#ffffff"><polygon
         points="499.18,144 511.992,112 160.008,112 172.805,144   "
         id="polygon4209"
         style="fill:#ffffff" /><polygon
         points="211.195,240 223.992,272 447.992,272 460.805,240   "
         id="polygon4211"
         style="fill:#ffffff" /><polygon
         points="486.398,176 185.602,176 198.398,208 473.586,208   "
         id="polygon4213"
         style="fill:#ffffff" /></g></g></svg>